<svg width="31" height="30" viewBox="0 0 31 30" fill="none" xmlns="http://www.w3.org/2000/svg">
<path fill-rule="evenodd" clip-rule="evenodd" d="M9.16587 0.09C10.8042 0.0163636 11.3266 0 15.5001 0C19.6735 0 20.1959 0.0177273 21.8329 0.09C23.4698 0.162273 24.5872 0.417273 25.5649 0.786818C26.5887 1.16455 27.5176 1.755 28.2858 2.51864C29.0679 3.26727 29.6713 4.17273 30.0568 5.17364C30.4367 6.12818 30.6965 7.21909 30.772 8.81455C30.8474 10.4168 30.8641 10.9268 30.8641 15C30.8641 19.0745 30.846 19.5845 30.772 21.1841C30.6979 22.7795 30.4367 23.8705 30.0568 24.825C29.6713 25.826 29.0669 26.733 28.2858 27.4827C27.5176 28.2464 26.5887 28.8355 25.5649 29.2118C24.5872 29.5827 23.4698 29.8364 21.8356 29.91C20.1959 29.9836 19.6735 30 15.5001 30C11.3266 30 10.8042 29.9823 9.16587 29.91C7.53169 29.8377 6.41431 29.5827 5.43659 29.2118C4.41128 28.8354 3.48231 28.2453 2.71436 27.4827C1.93272 26.7336 1.32784 25.8271 0.941902 24.8264C0.563387 23.8718 0.303594 22.7809 0.228171 21.1855C0.152747 19.5832 0.135986 19.0732 0.135986 15C0.135986 10.9255 0.154144 10.4155 0.228171 8.81727C0.302198 7.21909 0.563387 6.12818 0.941902 5.17364C1.32841 4.17284 1.93375 3.26634 2.71575 2.51727C3.48262 1.75432 4.41065 1.16379 5.4352 0.786818C6.41291 0.417273 7.5303 0.163636 9.16448 0.09H9.16587ZM21.7085 2.79C20.0883 2.71773 19.6023 2.70273 15.5001 2.70273C11.3979 2.70273 10.9118 2.71773 9.29158 2.79C7.79288 2.85682 6.97998 3.10091 6.43805 3.30682C5.72153 3.57955 5.20892 3.90273 4.67118 4.42773C4.16144 4.91189 3.76914 5.50129 3.52307 6.15273C3.31216 6.68182 3.06214 7.47545 2.9937 8.93864C2.91968 10.5205 2.90431 10.995 2.90431 15C2.90431 19.005 2.91968 19.4795 2.9937 21.0614C3.06214 22.5245 3.31216 23.3182 3.52307 23.8473C3.76889 24.4977 4.16137 25.0882 4.67118 25.5723C5.16702 26.07 5.77181 26.4532 6.43805 26.6932C6.97998 26.8991 7.79288 27.1432 9.29158 27.21C10.9118 27.2823 11.3965 27.2973 15.5001 27.2973C19.6037 27.2973 20.0883 27.2823 21.7085 27.21C23.2072 27.1432 24.0201 26.8991 24.5621 26.6932C25.2786 26.4205 25.7912 26.0973 26.3289 25.5723C26.8387 25.0882 27.2312 24.4977 27.4771 23.8473C27.688 23.3182 27.938 22.5245 28.0064 21.0614C28.0804 19.4795 28.0958 19.005 28.0958 15C28.0958 10.995 28.0804 10.5205 28.0064 8.93864C27.938 7.47545 27.688 6.68182 27.4771 6.15273C27.1977 5.45318 26.8667 4.95273 26.3289 4.42773C25.833 3.9301 25.2293 3.54711 24.5621 3.30682C24.0201 3.10091 23.2072 2.85682 21.7085 2.79V2.79ZM13.5377 19.6241C14.6336 20.0695 15.854 20.1296 16.9903 19.7942C18.1266 19.4587 19.1084 18.7485 19.7679 17.7849C20.4275 16.8212 20.7239 15.6639 20.6066 14.5106C20.4892 13.3573 19.9654 12.2795 19.1246 11.4614C18.5886 10.9384 17.9405 10.5379 17.2269 10.2888C16.5133 10.0397 15.7521 9.94822 14.9979 10.0208C14.2438 10.0935 13.5155 10.3284 12.8655 10.7088C12.2156 11.0892 11.6601 11.6056 11.239 12.2207C10.818 12.8359 10.5419 13.5345 10.4306 14.2663C10.3194 14.9981 10.3757 15.7449 10.5955 16.453C10.8153 17.161 11.1932 17.8126 11.702 18.361C12.2107 18.9093 12.8376 19.3407 13.5377 19.6241ZM9.91592 9.54818C10.6492 8.83224 11.5198 8.26432 12.4779 7.87686C13.4361 7.48939 14.463 7.28996 15.5001 7.28996C16.5371 7.28996 17.564 7.48939 18.5222 7.87686C19.4803 8.26432 20.3509 8.83224 21.0842 9.54818C21.8175 10.2641 22.3992 11.1141 22.7961 12.0495C23.193 12.9849 23.3972 13.9875 23.3972 15C23.3972 16.0125 23.193 17.0151 22.7961 17.9505C22.3992 18.8859 21.8175 19.7359 21.0842 20.4518C19.6032 21.8977 17.5945 22.71 15.5001 22.71C13.4056 22.71 11.3969 21.8977 9.91592 20.4518C8.43491 19.0059 7.60289 17.0448 7.60289 15C7.60289 12.9552 8.43491 10.9941 9.91592 9.54818V9.54818ZM25.1487 8.43818C25.3304 8.27082 25.4759 8.06957 25.5765 7.84633C25.6772 7.62309 25.7309 7.38241 25.7345 7.13854C25.7382 6.89467 25.6916 6.65256 25.5977 6.42656C25.5038 6.20055 25.3644 5.99524 25.1878 5.82278C25.0111 5.65032 24.8008 5.51421 24.5693 5.42252C24.3378 5.33083 24.0898 5.28542 23.8401 5.28898C23.5903 5.29253 23.3437 5.34498 23.1151 5.44322C22.8864 5.54146 22.6803 5.68349 22.5089 5.86091C22.1755 6.20595 21.993 6.66426 22 7.13854C22.0071 7.61283 22.2033 8.06574 22.5468 8.40115C22.8904 8.73655 23.3543 8.92804 23.8401 8.93495C24.3259 8.94187 24.7953 8.76367 25.1487 8.43818V8.43818Z" fill="white"/>
</svg>
