<svg width="145" height="55" viewBox="0 0 145 55" fill="none" xmlns="http://www.w3.org/2000/svg">
<g clip-path="url(#clip0_2148_2267)">
<g filter="url(#filter0_d_2148_2267)">
<path fill-rule="evenodd" clip-rule="evenodd" d="M78.0595 0H34.0404L26.4077 4.83338V8.23465L26.5122 8.23626V35.3072L26.2003 35.5092L11.8741 26.0665V4.65437H1V30.6114H1.03259L1.00005 30.6476L25.0255 46.4832L25.1421 46.3536L25.1526 46.3647L37.9091 40.0478L37.9091 28.1052L37.9091 28.1044L38.0041 8.41351L38.0136 8.41366L38.0136 6.44451L38.0136 5.90746H48.2604V33.5651L58.5071 27.2101V5.90746H69.3811V21.3027L80.778 17.7224V5.90746V4.29634V2.68521L78.0595 0Z" fill="#415DCC"/>
</g>
<path d="M66.3524 50L60.8084 26.9H63.6794L68.2664 47.36L72.8204 26.9H75.6914L70.2464 50H66.3524ZM78.6529 30.035V27.395H81.2929V30.035H78.6529ZM78.6529 50V32.84H81.2929V50H78.6529ZM84.2693 48.02H87.0743C88.0203 48.02 88.7023 47.767 89.1203 47.261C89.5603 46.733 89.7803 46.051 89.7803 45.215C89.7803 44.555 89.5823 43.994 89.1863 43.532C88.7903 43.07 88.1963 42.531 87.4043 41.915C86.7223 41.365 86.1723 40.892 85.7543 40.496C85.3583 40.078 85.0063 39.572 84.6983 38.978C84.4123 38.362 84.2693 37.658 84.2693 36.866C84.2693 35.7 84.6543 34.743 85.4243 33.995C86.2163 33.225 87.2723 32.84 88.5923 32.84H91.4633V34.82H89.0873C87.5253 34.82 86.7443 35.557 86.7443 37.031C86.7443 37.603 86.9203 38.098 87.2723 38.516C87.6243 38.934 88.1743 39.429 88.9223 40.001C89.6043 40.529 90.1653 41.013 90.6053 41.453C91.0453 41.871 91.4193 42.41 91.7273 43.07C92.0353 43.708 92.1893 44.467 92.1893 45.347C92.1893 46.909 91.7713 48.075 90.9353 48.845C90.1213 49.615 88.9663 50 87.4703 50H84.2693V48.02ZM97.1659 50.231C96.3739 50.231 95.7799 49.956 95.3839 49.406C95.0099 48.856 94.8229 48.141 94.8229 47.261V32.84H97.4629V46.403C97.4629 47.019 97.5069 47.459 97.5949 47.723C97.6829 47.987 97.8919 48.119 98.2219 48.119C98.3759 48.119 99.6189 47.789 101.951 47.129V32.84H104.591V50H102.71L102.215 48.878C101.863 49.01 101.599 49.098 101.423 49.142C100.389 49.516 99.5529 49.791 98.9149 49.967C98.2769 50.143 97.6939 50.231 97.1659 50.231Z" fill="#849CFF"/>
<path d="M108.559 32.84H110.605L110.902 33.797L112.255 33.401C113.179 33.115 113.905 32.917 114.433 32.807C114.983 32.675 115.5 32.609 115.984 32.609C116.93 32.609 117.59 33.027 117.964 33.863C118.58 33.643 119.449 33.379 120.571 33.071C121.693 32.763 122.518 32.609 123.046 32.609C123.838 32.609 124.421 32.884 124.795 33.434C125.191 33.984 125.389 34.699 125.389 35.579V50H122.749V36.437C122.749 35.799 122.705 35.359 122.617 35.117C122.529 34.853 122.309 34.721 121.957 34.721C121.781 34.721 120.571 35.073 118.327 35.777V50H115.687V36.437C115.687 35.799 115.643 35.359 115.555 35.117C115.467 34.853 115.247 34.721 114.895 34.721C114.719 34.721 113.487 35.073 111.199 35.777V50H108.559V32.84ZM132.455 50C131.245 50 130.277 49.637 129.551 48.911C128.847 48.185 128.495 47.206 128.495 45.974V37.196C128.495 35.766 128.891 34.644 129.683 33.83C130.475 33.016 131.652 32.609 133.214 32.609C134.776 32.609 135.942 33.016 136.712 33.83C137.504 34.644 137.9 35.766 137.9 37.196V38.714C137.9 39.638 137.636 40.342 137.108 40.826C136.58 41.288 135.887 41.64 135.029 41.882L131.135 42.971V46.205C131.135 46.733 131.289 47.173 131.597 47.525C131.927 47.855 132.345 48.02 132.851 48.02H136.415V50H132.455ZM133.148 40.331C133.874 40.133 134.358 39.99 134.6 39.902C134.864 39.792 135.04 39.638 135.128 39.44C135.216 39.242 135.26 38.912 135.26 38.45V36.635C135.26 35.931 135.073 35.414 134.699 35.084C134.347 34.754 133.852 34.589 133.214 34.589C132.598 34.589 132.092 34.765 131.696 35.117C131.322 35.469 131.135 35.975 131.135 36.635V40.892L133.148 40.331ZM140.528 30.035V27.395H143.168V30.035H140.528ZM140.528 50V32.84H143.168V50H140.528Z" fill="#415DCC"/>
</g>
<defs>
<filter id="filter0_d_2148_2267" x="-3" y="0" width="87.7783" height="54.4832" filterUnits="userSpaceOnUse" color-interpolation-filters="sRGB">
<feFlood flood-opacity="0" result="BackgroundImageFix"/>
<feColorMatrix in="SourceAlpha" type="matrix" values="0 0 0 0 0 0 0 0 0 0 0 0 0 0 0 0 0 0 127 0" result="hardAlpha"/>
<feOffset dy="4"/>
<feGaussianBlur stdDeviation="2"/>
<feComposite in2="hardAlpha" operator="out"/>
<feColorMatrix type="matrix" values="0 0 0 0 0 0 0 0 0 0 0 0 0 0 0 0 0 0 0.25 0"/>
<feBlend mode="normal" in2="BackgroundImageFix" result="effect1_dropShadow_2148_2267"/>
<feBlend mode="normal" in="SourceGraphic" in2="effect1_dropShadow_2148_2267" result="shape"/>
</filter>
<clipPath id="clip0_2148_2267">
<rect width="145" height="55" fill="white"/>
</clipPath>
</defs>
</svg>
