<svg width="1440" height="580" viewBox="0 0 1440 580" fill="none" xmlns="http://www.w3.org/2000/svg">
<g clip-path="url(#clip0_2010_2173)">
<rect width="1440" height="580" fill="white"/>
<ellipse rx="4.67843" ry="4.99972" transform="matrix(0.031835 0.999493 -0.999611 0.0278715 1356.15 556.815)" fill="#849CFF"/>
<ellipse rx="4.67843" ry="4.99972" transform="matrix(0.031835 0.999493 -0.999611 0.0278715 1401.15 566.815)" fill="#849CFF"/>
<path fill-rule="evenodd" clip-rule="evenodd" d="M1480 -188H-30.6953V135.194C-70.9221 166.116 -82 205.165 -82 217.357C-82 254.279 317.585 473 724.652 473C1131.72 473 1461.71 443.069 1461.71 406.147L1480 406.147V-188Z" fill="#849CFF"/>
<ellipse rx="23.3961" ry="24.9949" transform="matrix(-0.0612364 0.998123 -0.998561 -0.0536297 1406.8 458.692)" fill="#849CFF"/>
<ellipse rx="14.0353" ry="14.9992" transform="matrix(0.031835 0.999493 -0.999611 0.0278715 1330.48 478.529)" fill="#849CFF"/>
<ellipse rx="4.67843" ry="4.99972" transform="matrix(0.031835 0.999493 -0.999611 0.0278715 1329.31 504.771)" fill="#849CFF"/>
<ellipse rx="4.67843" ry="4.99972" transform="matrix(0.031835 0.999493 -0.999611 0.0278715 1411.13 497.81)" fill="#849CFF"/>
<ellipse rx="4.63456" ry="4.99969" transform="matrix(0.0321363 0.999483 -0.999619 0.0276101 1364.19 464.165)" fill="#849CFF"/>
<ellipse rx="4.67843" ry="4.99972" transform="matrix(0.031835 0.999493 -0.999611 0.0278715 1370.29 503.629)" fill="#849CFF"/>
<ellipse rx="4.67843" ry="4.99972" transform="matrix(0.031835 0.999493 -0.999611 0.0278715 1296.24 502.886)" fill="#849CFF"/>
<ellipse rx="4.67843" ry="4.99972" transform="matrix(0.031835 0.999493 -0.999611 0.0278715 1265.15 474.952)" fill="#849CFF"/>
<ellipse rx="4.67843" ry="4.99972" transform="matrix(0.031835 0.999493 -0.999611 0.0278715 1293.89 466.661)" fill="#849CFF"/>
<ellipse rx="4.67843" ry="4.99972" transform="matrix(0.031835 0.999493 -0.999611 0.0278715 1347.05 527.678)" fill="#849CFF"/>
<path d="M1340.42 462.188C1336.28 462.304 1332.83 459.257 1332.7 455.383C1332.58 451.509 1335.84 448.275 1339.98 448.16C1344.12 448.044 1347.57 451.091 1347.7 454.965C1347.82 458.839 1344.56 462.073 1340.42 462.188Z" fill="#849CFF"/>
<path d="M1353.89 508.147C1349.75 508.262 1346.3 505.215 1346.17 501.342C1346.05 497.468 1349.31 494.234 1353.45 494.118C1357.59 494.003 1361.04 497.05 1361.17 500.924C1361.29 504.797 1358.03 508.031 1353.89 508.147Z" fill="#849CFF"/>
<path d="M1295.7 487.304C1291.56 487.42 1288.11 484.373 1287.98 480.499C1287.86 476.625 1291.12 473.391 1295.26 473.276C1299.4 473.16 1302.85 476.207 1302.98 480.081C1303.1 483.955 1299.84 487.189 1295.7 487.304Z" fill="#849CFF"/>
<path d="M1382.47 557.428C1378.33 557.543 1374.88 554.497 1374.75 550.623C1374.63 546.749 1377.89 543.515 1382.03 543.4C1386.17 543.284 1389.62 546.331 1389.75 550.205C1389.87 554.079 1386.61 557.312 1382.47 557.428Z" fill="#849CFF"/>
<path d="M1388.02 495.963C1383.88 496.078 1380.42 493.031 1380.3 489.158C1380.18 485.284 1383.43 482.05 1387.57 481.934C1391.71 481.819 1395.17 484.866 1395.29 488.739C1395.42 492.613 1392.16 495.847 1388.02 495.963Z" fill="#849CFF"/>
<path d="M1413.24 549.55C1409.1 549.665 1405.64 546.619 1405.52 542.745C1405.39 538.871 1408.65 535.637 1412.79 535.522C1416.93 535.406 1420.39 538.453 1420.51 542.327C1420.63 546.201 1417.38 549.434 1413.24 549.55Z" fill="#849CFF"/>
<ellipse rx="14.0353" ry="14.9992" transform="matrix(0.031835 0.999493 -0.999611 0.0278715 1393.73 517.016)" fill="#849CFF"/>
</g>
<defs>
<clipPath id="clip0_2010_2173">
<rect width="1440" height="580" fill="white"/>
</clipPath>
</defs>
</svg>
