<svg width="143" height="58" viewBox="0 0 143 58" fill="none" xmlns="http://www.w3.org/2000/svg">
<g filter="url(#filter0_d_1583_2105)">
<path fill-rule="evenodd" clip-rule="evenodd" d="M81.0595 0H37.0404L29.4077 4.83338V8.23465L29.5122 8.23626V35.3072L29.2003 35.5092L14.8741 26.0665V4.65437H4V30.6114H4.03259L4.00005 30.6476L28.0255 46.4832L28.1421 46.3536L28.1526 46.3647L40.9091 40.0478L40.9091 28.1052L40.9091 28.1045L41.0041 8.41351L41.0136 8.41366L41.0136 6.44451L41.0136 5.90746H51.2604V33.5651L61.5071 27.2101V5.90746H72.3811V21.3027L83.778 17.7224V5.90746V4.29634V2.68521L81.0595 0Z" fill="#415DCC"/>
</g>
<path d="M65.3524 57L59.8084 33.9H62.6794L67.2664 54.36L71.8204 33.9H74.6914L69.2464 57H65.3524ZM77.6529 37.035V34.395H80.2929V37.035H77.6529ZM77.6529 57V39.84H80.2929V57H77.6529ZM83.2693 55.02H86.0743C87.0203 55.02 87.7023 54.767 88.1203 54.261C88.5603 53.733 88.7803 53.051 88.7803 52.215C88.7803 51.555 88.5823 50.994 88.1863 50.532C87.7903 50.07 87.1963 49.531 86.4043 48.915C85.7223 48.365 85.1723 47.892 84.7543 47.496C84.3583 47.078 84.0063 46.572 83.6983 45.978C83.4123 45.362 83.2693 44.658 83.2693 43.866C83.2693 42.7 83.6543 41.743 84.4243 40.995C85.2163 40.225 86.2723 39.84 87.5923 39.84H90.4633V41.82H88.0873C86.5253 41.82 85.7443 42.557 85.7443 44.031C85.7443 44.603 85.9203 45.098 86.2723 45.516C86.6243 45.934 87.1743 46.429 87.9223 47.001C88.6043 47.529 89.1653 48.013 89.6053 48.453C90.0453 48.871 90.4193 49.41 90.7273 50.07C91.0353 50.708 91.1893 51.467 91.1893 52.347C91.1893 53.909 90.7713 55.075 89.9353 55.845C89.1213 56.615 87.9663 57 86.4703 57H83.2693V55.02ZM96.1659 57.231C95.3739 57.231 94.7799 56.956 94.3839 56.406C94.0099 55.856 93.8229 55.141 93.8229 54.261V39.84H96.4629V53.403C96.4629 54.019 96.5069 54.459 96.5949 54.723C96.6829 54.987 96.8919 55.119 97.2219 55.119C97.3759 55.119 98.6189 54.789 100.951 54.129V39.84H103.591V57H101.71L101.215 55.878C100.863 56.01 100.599 56.098 100.423 56.142C99.3889 56.516 98.5529 56.791 97.9149 56.967C97.2769 57.143 96.6939 57.231 96.1659 57.231Z" fill="white"/>
<path d="M107.559 39.84H109.605L109.902 40.797L111.255 40.401C112.179 40.115 112.905 39.917 113.433 39.807C113.983 39.675 114.5 39.609 114.984 39.609C115.93 39.609 116.59 40.027 116.964 40.863C117.58 40.643 118.449 40.379 119.571 40.071C120.693 39.763 121.518 39.609 122.046 39.609C122.838 39.609 123.421 39.884 123.795 40.434C124.191 40.984 124.389 41.699 124.389 42.579V57H121.749V43.437C121.749 42.799 121.705 42.359 121.617 42.117C121.529 41.853 121.309 41.721 120.957 41.721C120.781 41.721 119.571 42.073 117.327 42.777V57H114.687V43.437C114.687 42.799 114.643 42.359 114.555 42.117C114.467 41.853 114.247 41.721 113.895 41.721C113.719 41.721 112.487 42.073 110.199 42.777V57H107.559V39.84ZM131.455 57C130.245 57 129.277 56.637 128.551 55.911C127.847 55.185 127.495 54.206 127.495 52.974V44.196C127.495 42.766 127.891 41.644 128.683 40.83C129.475 40.016 130.652 39.609 132.214 39.609C133.776 39.609 134.942 40.016 135.712 40.83C136.504 41.644 136.9 42.766 136.9 44.196V45.714C136.9 46.638 136.636 47.342 136.108 47.826C135.58 48.288 134.887 48.64 134.029 48.882L130.135 49.971V53.205C130.135 53.733 130.289 54.173 130.597 54.525C130.927 54.855 131.345 55.02 131.851 55.02H135.415V57H131.455ZM132.148 47.331C132.874 47.133 133.358 46.99 133.6 46.902C133.864 46.792 134.04 46.638 134.128 46.44C134.216 46.242 134.26 45.912 134.26 45.45V43.635C134.26 42.931 134.073 42.414 133.699 42.084C133.347 41.754 132.852 41.589 132.214 41.589C131.598 41.589 131.092 41.765 130.696 42.117C130.322 42.469 130.135 42.975 130.135 43.635V47.892L132.148 47.331ZM139.528 37.035V34.395H142.168V37.035H139.528ZM139.528 57V39.84H142.168V57H139.528Z" fill="#415DCC"/>
<defs>
<filter id="filter0_d_1583_2105" x="0" y="0" width="87.7781" height="54.4832" filterUnits="userSpaceOnUse" color-interpolation-filters="sRGB">
<feFlood flood-opacity="0" result="BackgroundImageFix"/>
<feColorMatrix in="SourceAlpha" type="matrix" values="0 0 0 0 0 0 0 0 0 0 0 0 0 0 0 0 0 0 127 0" result="hardAlpha"/>
<feOffset dy="4"/>
<feGaussianBlur stdDeviation="2"/>
<feComposite in2="hardAlpha" operator="out"/>
<feColorMatrix type="matrix" values="0 0 0 0 0 0 0 0 0 0 0 0 0 0 0 0 0 0 0.25 0"/>
<feBlend mode="normal" in2="BackgroundImageFix" result="effect1_dropShadow_1583_2105"/>
<feBlend mode="normal" in="SourceGraphic" in2="effect1_dropShadow_1583_2105" result="shape"/>
</filter>
</defs>
</svg>
