<svg width="1440" height="349" viewBox="0 0 1440 349" fill="none" xmlns="http://www.w3.org/2000/svg">
<g clip-path="url(#clip0_1989_2797)">
<rect width="1440" height="349" fill="white"/>
<ellipse cx="727" cy="174.914" rx="727" ry="71.5" fill="#849CFF"/>
<rect y="177" width="1452" height="172" fill="#849CFF"/>
<ellipse rx="12.5968" ry="14.9014" transform="matrix(-0.354914 -0.934899 0.96964 -0.244537 109.069 90.0901)" fill="#849CFF"/>
<ellipse rx="12.5968" ry="14.9014" transform="matrix(-0.354914 -0.934899 0.96964 -0.244537 23.9616 134.093)" fill="#849CFF"/>
<ellipse rx="4.19893" ry="4.96712" transform="matrix(-0.354914 -0.934899 0.96964 -0.244537 102.65 67.6205)" fill="#849CFF"/>
<ellipse rx="4.19893" ry="4.96712" transform="matrix(-0.354914 -0.934899 0.96964 -0.244537 10.3397 108.198)" fill="#849CFF"/>
<ellipse rx="4.19893" ry="4.96712" transform="matrix(-0.354914 -0.934899 0.96964 -0.244537 89.8471 117.305)" fill="#849CFF"/>
<ellipse rx="4.19893" ry="4.96712" transform="matrix(-0.354914 -0.934899 0.96964 -0.244537 169.478 85.1791)" fill="#849CFF"/>
<ellipse rx="4.19893" ry="4.96712" transform="matrix(-0.354914 -0.934899 0.96964 -0.244537 143.928 98.5043)" fill="#849CFF"/>
<ellipse rx="4.19893" ry="4.96712" transform="matrix(-0.354914 -0.934899 0.96964 -0.244537 11.3949 69.1283)" fill="#849CFF"/>
<ellipse rx="4.19893" ry="4.96712" transform="matrix(-0.354914 -0.934899 0.96964 -0.244537 11.3949 69.1283)" fill="#849CFF"/>
<path d="M106.36 108.863C110.35 107.857 114.586 109.677 115.82 112.929C117.055 116.182 114.821 119.634 110.831 120.64C106.841 121.646 102.606 119.825 101.371 116.573C100.137 113.321 102.37 109.869 106.36 108.863Z" fill="#849CFF"/>
<path d="M80.0477 72.9151C84.0376 71.9088 88.273 73.7294 89.5075 76.9815C90.7421 80.2335 88.5084 83.6855 84.5184 84.6918C80.5285 85.698 76.2931 83.8774 75.0586 80.6254C73.824 77.3733 76.0577 73.9213 80.0477 72.9151Z" fill="#849CFF"/>
<path d="M142.589 77.7894C146.579 76.7832 150.814 78.6037 152.048 81.8558C153.283 85.1078 151.049 88.5599 147.059 89.5661C143.069 90.5724 138.834 88.7518 137.6 85.4997C136.365 82.2477 138.599 78.7956 142.589 77.7894Z" fill="#849CFF"/>
<path d="M38.0937 37.4705C42.0837 36.4643 46.319 38.2849 47.5536 41.5369C48.7882 44.789 46.5545 48.241 42.5645 49.2472C38.5745 50.2535 34.3392 48.4329 33.1046 45.1808C31.8701 41.9288 34.1038 38.4768 38.0937 37.4705Z" fill="#849CFF"/>
<path d="M50.3916 90.7175C54.3816 89.7113 58.6169 91.5318 59.8515 94.7839C61.0861 98.0359 58.8524 101.488 54.8624 102.494C50.8724 103.5 46.6371 101.68 45.4026 98.4278C44.168 95.1758 46.4017 91.7237 50.3916 90.7175Z" fill="#849CFF"/>
<path d="M10.468 50.8897C14.458 49.8834 18.6933 51.704 19.9279 54.9561C21.1624 58.2081 18.9287 61.6601 14.9388 62.6664C10.9488 63.6726 6.71347 61.852 5.4789 58.6C4.24433 55.3479 6.47802 51.8959 10.468 50.8897Z" fill="#849CFF"/>
<ellipse rx="12.5968" ry="14.9014" transform="matrix(-0.354914 -0.934899 0.96964 -0.244537 36.5304 71.3918)" fill="#849CFF"/>
<ellipse cx="1416.69" cy="121.96" rx="25.2081" ry="20.546" fill="#849CFF"/>
<ellipse cx="1306.78" cy="108.81" rx="15.1248" ry="12.3276" fill="#849CFF"/>
<ellipse cx="1407.62" cy="64.4311" rx="15.1248" ry="12.3276" fill="#849CFF"/>
<ellipse cx="1434.34" cy="20.4626" rx="7.56244" ry="6.16379" fill="#849CFF"/>
<ellipse cx="1261.92" cy="102.646" rx="7.56244" ry="6.1638" fill="#849CFF"/>
<ellipse cx="1328.46" cy="64.0202" rx="7.56244" ry="6.16379" fill="#849CFF"/>
<ellipse cx="1367.79" cy="121.549" rx="7.56244" ry="6.1638" fill="#849CFF"/>
<ellipse cx="1374.85" cy="51.6921" rx="7.56244" ry="6.16379" fill="#849CFF"/>
<ellipse cx="1435.35" cy="83.7439" rx="7.56238" ry="6.16379" fill="#849CFF"/>
<ellipse cx="1391.99" cy="95.2497" rx="7.56244" ry="6.1638" fill="#849CFF"/>
<ellipse cx="1345.61" cy="109.221" rx="7.56244" ry="6.16379" fill="#849CFF"/>
</g>
<defs>
<clipPath id="clip0_1989_2797">
<rect width="1440" height="349" fill="white"/>
</clipPath>
</defs>
</svg>
