<svg width="1440" height="631" viewBox="0 0 1440 631" fill="none" xmlns="http://www.w3.org/2000/svg">
<g clip-path="url(#clip0_1989_2439)">
<rect width="1440" height="631" fill="white"/>
<ellipse cx="718.487" cy="426.76" rx="725.5" ry="67.1839" fill="#849CFF"/>
<rect x="-5" width="1448.99" height="424.867" fill="#849CFF"/>
<ellipse cx="1381.6" cy="493.943" rx="25.156" ry="23.6563" fill="#849CFF"/>
<ellipse cx="1322.23" cy="487.32" rx="15.0936" ry="14.1938" fill="#849CFF"/>
<ellipse cx="1421.85" cy="531.793" rx="15.0936" ry="14.1938" fill="#849CFF"/>
<ellipse cx="1361.48" cy="529.901" rx="5.03119" ry="4.73126" fill="#849CFF"/>
<ellipse cx="1420.84" cy="501.513" rx="5.03119" ry="4.73126" fill="#849CFF"/>
<ellipse cx="1348.39" cy="471.233" rx="5.03119" ry="4.73125" fill="#849CFF"/>
<ellipse cx="1386.63" cy="461.771" rx="5.03119" ry="4.73126" fill="#849CFF"/>
<ellipse cx="1436.94" cy="442.846" rx="5.03119" ry="4.73126" fill="#849CFF"/>
<ellipse cx="1391.66" cy="529.901" rx="5.03125" ry="4.73126" fill="#849CFF"/>
<ellipse cx="1391.66" cy="570.59" rx="5.03125" ry="4.73123" fill="#849CFF"/>
<ellipse cx="1302.11" cy="531.794" rx="5.03119" ry="4.73126" fill="#849CFF"/>
<ellipse cx="1327.26" cy="580.053" rx="5.03119" ry="4.73126" fill="#849CFF"/>
<ellipse cx="1351.41" cy="561.128" rx="5.03125" ry="4.73126" fill="#849CFF"/>
<ellipse cx="1266.89" cy="522.331" rx="5.03125" ry="4.73126" fill="#849CFF"/>
<ellipse cx="1337.33" cy="517.599" rx="5.03125" ry="4.73126" fill="#849CFF"/>
<ellipse cx="1288.02" cy="482.589" rx="5.03119" ry="4.73126" fill="#849CFF"/>
<ellipse cx="1421.85" cy="461.771" rx="15.0936" ry="14.1938" fill="#849CFF"/>
<ellipse rx="25.156" ry="23.6563" transform="matrix(-1 0 0 1 73.487 501.514)" fill="#849CFF"/>
<ellipse rx="15.0936" ry="14.1938" transform="matrix(-1 0 0 1 125.811 486.373)" fill="#849CFF"/>
<ellipse rx="15.0936" ry="14.1938" transform="matrix(-1 0 0 1 26.1935 532.74)" fill="#849CFF"/>
<ellipse rx="5.0312" ry="4.73126" transform="matrix(-1 0 0 1 152.98 556.396)" fill="#849CFF"/>
<ellipse rx="5.03121" ry="4.73126" transform="matrix(-1 0 0 1 22.1685 495.836)" fill="#849CFF"/>
<ellipse rx="5.03121" ry="4.73126" transform="matrix(-1 0 0 1 98.6426 472.18)" fill="#849CFF"/>
<ellipse rx="5.0312" ry="4.73126" transform="matrix(-1 0 0 1 59.3995 459.879)" fill="#849CFF"/>
<ellipse rx="5.03121" ry="4.73126" transform="matrix(-1 0 0 1 4.0562 444.738)" fill="#849CFF"/>
<ellipse rx="5.03121" ry="4.73126" transform="matrix(-1 0 0 1 54.3682 540.309)" fill="#849CFF"/>
<ellipse rx="5.03121" ry="4.73126" transform="matrix(-1 0 0 1 78.5181 556.396)" fill="#849CFF"/>
<ellipse rx="5.03121" ry="4.73126" transform="matrix(-1 0 0 1 108.705 556.396)" fill="#849CFF"/>
<ellipse rx="5.0312" ry="4.73126" transform="matrix(-1 0 0 1 147.949 520.438)" fill="#849CFF"/>
<ellipse rx="5.0312" ry="4.73128" transform="matrix(-1 0 0 1 189.205 510.03)" fill="#849CFF"/>
<ellipse rx="5.0312" ry="4.73126" transform="matrix(-1 0 0 1 118.768 525.17)" fill="#849CFF"/>
<ellipse rx="5.0312" ry="4.73126" transform="matrix(-1 0 0 1 163.043 482.589)" fill="#849CFF"/>
<ellipse rx="15.0936" ry="14.1938" transform="matrix(-1 0 0 1 22.1686 463.663)" fill="#849CFF"/>
</g>
<defs>
<clipPath id="clip0_1989_2439">
<rect width="1440" height="631" fill="white"/>
</clipPath>
</defs>
</svg>
