<svg width="444" height="308" viewBox="0 0 444 308" fill="none" xmlns="http://www.w3.org/2000/svg">
<g filter="url(#filter0_d_1786_2197)">
<path d="M20 35C20 26.7157 26.7157 20 35 20H409C417.284 20 424 26.7157 424 35V273C424 281.284 417.284 288 409 288H35C26.7157 288 20 281.284 20 273V35Z" fill="#849CFF"/>
</g>
<path d="M386 20C386 25.1216 387.009 30.193 388.969 34.9247C390.929 39.6564 393.801 43.9557 397.423 47.5772C401.044 51.1986 405.344 54.0714 410.075 56.0313C414.807 57.9912 419.878 59 425 59L425 52.8771C420.683 52.8771 416.407 52.0267 412.418 50.3745C408.43 48.7223 404.805 46.3006 401.752 43.2476C398.699 40.1947 396.278 36.5704 394.625 32.5815C392.973 28.5927 392.123 24.3175 392.123 20L386 20Z" fill="#0F3AE4"/>
<path d="M374 20C374 26.5661 375.293 33.0679 377.806 39.1342C380.319 45.2004 384.002 50.7124 388.645 55.3553C393.288 59.9983 398.8 63.6812 404.866 66.194C410.932 68.7067 417.434 70 424 70L424 62.1502C418.465 62.1502 412.984 61.0599 407.87 58.9417C402.756 56.8234 398.109 53.7187 394.195 49.8047C390.281 45.8907 387.177 41.2441 385.058 36.1302C382.94 31.0163 381.85 25.5352 381.85 20L374 20Z" fill="#0F3AE4"/>
<path d="M58 288C58 282.878 56.9912 277.807 55.0313 273.075C53.0714 268.344 50.1986 264.044 46.5772 260.423C42.9557 256.801 38.6564 253.929 33.9247 251.969C29.193 250.009 24.1216 249 19 249L19 255.123C23.3175 255.123 27.5927 255.973 31.5815 257.625C35.5704 259.278 39.1947 261.699 42.2476 264.752C45.3006 267.805 47.7223 271.43 49.3745 275.418C51.0267 279.407 51.8771 283.683 51.8771 288L58 288Z" fill="#0F3AE4"/>
<path d="M70 288C70 281.434 68.7067 274.932 66.194 268.866C63.6812 262.8 59.9983 257.288 55.3553 252.645C50.7124 248.002 45.2005 244.319 39.1342 241.806C33.0679 239.293 26.5661 238 20 238L20 245.85C25.5352 245.85 31.0163 246.94 36.1302 249.058C41.2441 251.177 45.8907 254.281 49.8047 258.195C53.7187 262.109 56.8234 266.756 58.9417 271.87C61.0599 276.984 62.1502 282.465 62.1502 288L70 288Z" fill="#0F3AE4"/>
<defs>
<filter id="filter0_d_1786_2197" x="0" y="0" width="444" height="308" filterUnits="userSpaceOnUse" color-interpolation-filters="sRGB">
<feFlood flood-opacity="0" result="BackgroundImageFix"/>
<feColorMatrix in="SourceAlpha" type="matrix" values="0 0 0 0 0 0 0 0 0 0 0 0 0 0 0 0 0 0 127 0" result="hardAlpha"/>
<feOffset/>
<feGaussianBlur stdDeviation="10"/>
<feComposite in2="hardAlpha" operator="out"/>
<feColorMatrix type="matrix" values="0 0 0 0 0 0 0 0 0 0 0 0 0 0 0 0 0 0 0.25 0"/>
<feBlend mode="normal" in2="BackgroundImageFix" result="effect1_dropShadow_1786_2197"/>
<feBlend mode="normal" in="SourceGraphic" in2="effect1_dropShadow_1786_2197" result="shape"/>
</filter>
</defs>
</svg>
