<svg width="27" height="25" viewBox="0 0 27 25" fill="none" xmlns="http://www.w3.org/2000/svg">
<path fill-rule="evenodd" clip-rule="evenodd" d="M10.0019 8.71125H14.7571V11.0238C15.4421 9.69375 17.1987 8.49875 19.8375 8.49875C24.8961 8.49875 26.097 11.1463 26.097 16.0038V25H20.9757V17.11C20.9757 14.3437 20.2907 12.7838 18.5469 12.7838C16.1283 12.7838 15.1232 14.465 15.1232 17.1088V25H10.0019V8.71125V8.71125ZM1.22003 24.7875H6.34139V8.49875H1.22003V24.7875V24.7875ZM7.07503 3.1875C7.07522 3.60659 6.99008 4.02154 6.82457 4.40823C6.65907 4.79492 6.41649 5.14564 6.11093 5.44C5.49176 6.04078 4.65366 6.37707 3.78071 6.375C2.9093 6.37443 2.07313 6.039 1.45305 5.44125C1.1486 5.14589 0.906839 4.79478 0.741621 4.40804C0.576403 4.0213 0.490976 3.60653 0.490234 3.1875C0.490234 2.34125 0.835926 1.53125 1.45433 0.93375C2.07387 0.335198 2.91039 -0.000374013 3.78199 3.12831e-07C4.65518 3.12831e-07 5.49252 0.33625 6.11093 0.93375C6.72805 1.53125 7.07503 2.34125 7.07503 3.1875Z" fill="white"/>
</svg>
